<svg width="1200" height="324" viewBox="0 0 1200 324" fill="none" xmlns="http://www.w3.org/2000/svg">
<g clip-path="url(#clip0_237_971)">
<path d="M111.77 211.803C115.391 211.803 118.852 211.062 122.133 209.602C125.413 208.142 128.294 206.161 130.795 203.66C133.296 201.16 135.256 198.219 136.736 194.838C138.197 191.437 138.937 187.936 138.937 184.295C138.937 180.454 138.197 176.813 136.736 173.432C135.256 170.031 133.276 167.091 130.795 164.61C128.294 162.129 125.413 160.149 122.133 158.668C118.852 157.208 115.391 156.468 111.77 156.468H72.0192C62.0565 156.468 52.654 154.947 43.8117 151.887C34.9693 148.826 27.3273 144.305 20.8855 138.303C14.4238 132.301 9.34246 125.059 5.60146 116.557C1.86046 108.055 -3.24249e-05 98.3923 -3.24249e-05 87.5094C-3.24249e-05 76.6265 1.82045 67.184 5.44142 58.4617C9.06238 49.7394 13.9437 42.3174 20.0453 36.2157C26.1669 30.0941 33.4089 25.3529 41.7911 21.9519C50.1733 18.551 59.1157 16.8506 68.6383 16.8506H171.926V59.602H73.3795C66.3577 59.602 60.4761 62.1427 55.7148 67.244C50.9536 72.3454 48.5729 78.407 48.5729 85.4289C48.5729 92.4508 50.9536 98.7324 55.7148 103.594C60.4761 108.475 66.3577 110.896 73.3795 110.896H114.491C125.353 110.896 135.276 112.536 144.218 115.817C153.161 119.098 160.803 123.679 167.145 129.581C173.486 135.482 178.408 142.604 181.928 150.986C185.429 159.369 187.19 168.651 187.19 178.854C187.19 190.857 185.369 201.56 181.748 210.962C178.127 220.365 173.146 228.287 166.804 234.749C160.463 241.21 153.101 246.132 144.719 249.533C136.336 252.934 127.394 254.634 117.871 254.634H9.8626V211.823H111.77V211.803Z" fill="white"/>
<path d="M347.213 254.614V225.726C341.991 235.009 334.409 242.831 324.446 249.172C314.484 255.514 302.821 258.675 289.457 258.675C276.994 258.675 265.911 256.294 256.168 251.533C246.426 246.772 238.224 240.33 231.542 232.168C224.86 224.006 219.759 214.443 216.258 203.46C212.737 192.477 210.996 180.754 210.996 168.291C210.996 155.828 213.037 143.724 217.118 132.621C221.199 121.518 227.141 111.896 234.963 103.734C242.785 95.5915 252.407 89.1297 263.85 84.3685C275.293 79.6072 288.477 77.2266 303.441 77.2266C318.405 77.2266 331.528 79.6072 342.851 84.3685C354.174 89.1297 363.577 95.6315 371.059 103.894C378.541 112.156 384.202 121.778 388.043 132.781C391.884 143.764 393.825 155.607 393.825 168.291V321.992L347.273 254.574L347.213 254.614ZM258.209 167.651C258.209 174.673 259.229 181.354 261.27 187.696C263.31 194.038 266.251 199.479 270.112 204C273.953 208.542 278.614 212.163 284.036 214.863C289.457 217.564 295.699 218.944 302.721 218.944C309.743 218.944 315.624 217.584 321.066 214.863C326.507 212.143 331.088 208.522 334.829 204C338.57 199.479 341.451 194.038 343.492 187.696C345.532 181.354 346.552 174.673 346.552 167.651C346.552 160.629 345.532 154.067 343.492 147.945C341.451 141.824 338.57 136.462 334.829 131.801C331.088 127.16 326.507 123.539 321.066 120.938C315.624 118.338 309.523 117.037 302.721 117.037C295.919 117.037 289.477 118.338 284.036 120.938C278.594 123.539 273.953 127.16 270.112 131.801C266.251 136.442 263.31 141.824 261.27 147.945C259.229 154.067 258.209 160.629 258.209 167.651Z" fill="white"/>
<path d="M554.248 230.487C546.326 239.31 538.103 245.672 529.621 249.513C521.119 253.374 511.216 255.294 499.893 255.294C488.57 255.294 477.587 253.194 467.625 249.012C457.662 244.831 449 238.83 441.638 231.008C434.276 223.186 428.494 213.843 424.313 202.98C420.112 192.117 418.031 179.994 418.031 166.63C418.031 153.947 420.072 142.164 424.153 131.301C428.234 120.438 434.116 111.036 441.818 103.093C449.52 95.1714 459.082 88.8897 470.525 84.2285C481.969 79.5872 494.932 77.2666 509.436 77.2666C523.94 77.2666 536.103 79.4672 547.306 83.8884C558.509 88.3095 568.091 94.5912 576.014 102.733C583.936 110.896 590.057 120.798 594.359 132.461C598.66 144.124 600.82 157.088 600.82 171.372L602.321 323.252C602.321 323.252 558.889 324.433 551.547 323.572H437.097L490.551 284.362H556.148L554.268 230.467L554.248 230.487ZM553.568 167.971C553.568 160.729 552.547 154.047 550.507 147.925C548.466 141.804 545.586 136.442 541.845 131.781C538.104 127.14 533.462 123.519 527.921 120.918C522.379 118.318 516.198 117.017 509.416 117.017C502.634 117.017 496.452 118.318 490.891 120.918C485.329 123.519 480.708 127.04 476.967 131.441C473.226 135.862 470.345 141.064 468.305 147.065C466.264 153.067 465.244 159.589 465.244 166.59C465.244 173.592 466.264 179.734 468.305 185.616C470.345 191.517 473.226 196.658 476.967 201.08C480.708 205.501 485.349 209.002 490.891 211.602C496.432 214.203 502.614 215.503 509.416 215.503C516.218 215.503 522.379 214.263 527.921 211.762C533.462 209.262 538.104 205.881 541.845 201.58C545.586 197.279 548.466 192.237 550.507 186.456C552.547 180.674 553.568 174.513 553.568 167.931V167.971Z" fill="white"/>
<path d="M739.317 16.791V59.6024H673.059L672.739 255.235L629.008 189.637L624.466 59.6224H558.209V16.791H739.297H739.317Z" fill="white"/>
<path d="M795.512 254.614C780.568 254.614 767.085 252.413 755.081 247.992C743.078 243.571 732.835 237.509 724.333 229.827C715.831 222.125 709.329 212.963 704.808 202.3C700.267 191.657 698.006 180.214 698.006 167.991C698.006 154.187 700.147 141.724 704.468 130.621C708.769 119.518 714.771 110.015 722.473 102.073C730.175 94.1511 739.237 88.0295 749.66 83.7283C760.083 79.4272 771.406 77.2666 783.629 77.2666C798.113 77.2666 810.576 79.6472 820.999 84.4085C831.422 89.1698 839.964 95.6715 846.646 103.934C853.327 112.196 858.249 121.818 861.43 132.821C864.611 143.804 866.191 155.527 866.191 167.991C866.191 170.491 866.071 173.212 865.851 176.153C865.631 179.094 865.271 181.374 864.831 182.955H747.619C750.12 193.598 755.661 201.58 764.264 206.901C772.866 212.223 783.509 214.883 796.192 214.883H819.639L844.445 254.634H795.532L795.512 254.614ZM819.639 151.666C818.498 140.563 814.997 131.781 809.116 125.339C803.214 118.878 794.852 115.657 783.969 115.657C778.308 115.657 773.266 116.677 768.845 118.718C764.424 120.758 760.743 123.479 757.802 126.88C754.861 130.281 752.541 134.122 750.84 138.423C749.14 142.724 747.959 147.145 747.279 151.666H819.639Z" fill="white"/>
<path d="M892.118 167.351C892.118 155.168 894.478 143.845 899.22 133.362C903.961 122.879 910.443 113.737 918.665 105.955C926.887 98.1724 936.71 92.0908 948.093 87.6897C959.476 83.2885 971.819 81.0879 985.123 81.0879H1006.77V120.658H985.123C978.121 120.658 971.759 121.839 966.018 124.199C960.276 126.56 955.415 129.841 951.474 134.002C947.533 138.183 944.472 143.144 942.331 148.886C940.191 154.628 939.11 160.789 939.11 167.311C939.11 173.833 940.171 179.994 942.331 185.736C944.472 191.477 947.513 196.439 951.474 200.62C955.415 204.801 960.276 208.062 966.018 210.422C971.759 212.783 978.141 213.963 985.123 213.963H1006.77V253.534H985.123C971.819 253.534 959.476 251.333 948.093 246.932C936.71 242.531 926.887 236.449 918.665 228.667C910.423 220.885 903.941 211.763 899.22 201.26C894.478 190.777 892.118 179.434 892.118 167.271V167.351Z" fill="white"/>
<path d="M1077.35 0.106445V93.5714C1084.59 87.6898 1092.41 83.4887 1100.79 81.008C1109.18 78.5074 1117.44 77.267 1125.6 77.267C1138.04 77.267 1148.93 79.3076 1158.21 83.3887C1167.49 87.4697 1175.25 93.0112 1181.48 100.033C1187.7 107.055 1192.34 115.317 1195.4 124.84C1198.46 134.342 1199.98 144.425 1199.98 155.088V254.634H1153.43V155.088C1153.43 149.886 1152.41 144.945 1150.37 140.304C1148.33 135.663 1145.61 131.642 1142.2 128.241C1138.8 124.84 1134.78 122.119 1130.14 120.098C1125.5 118.058 1120.58 117.038 1115.36 117.038C1110.14 117.038 1105.21 117.998 1100.57 119.918C1095.93 121.839 1091.91 124.46 1088.51 127.74C1085.11 131.021 1082.39 134.882 1080.35 139.284C1078.31 143.705 1077.29 148.526 1077.29 153.727V254.634H1030.73L1029.85 63.3033L1077.35 0.106445Z" fill="white"/>
</g>
<defs>
<clipPath id="clip0_237_971">
<rect width="1200" height="324" fill="white"/>
</clipPath>
</defs>
</svg>
