<svg width="185" height="184" viewBox="0 0 185 184" fill="none" xmlns="http://www.w3.org/2000/svg">
<g clip-path="url(#clip0_1635_4)">
<path d="M145.103 16.5218C129.903 5.91032 111.343 -0.229785 91.3397 0.00555061C41.3631 0.62598 0.810545 41.4566 0.500331 91.4333C0.190116 142.544 41.8979 184.273 93.0084 183.995C143.113 183.717 184.019 142.982 184.49 92.8774C184.661 73.8259 179.045 56.1009 169.3 41.3497C168.048 46.0778 166.39 50.8379 164.358 55.4591C170.016 66.4556 173.204 78.8856 173.204 92.0002C173.204 113.886 164.304 133.858 149.949 148.459C135.272 163.403 114.884 172.709 92.495 172.709C83.8838 172.709 75.3476 171.34 67.2178 168.655C60.9708 166.591 57.4407 159.98 59.1309 153.626L65.9663 127.91C66.4262 126.199 64.918 124.594 63.185 124.958L32.3454 131.258C26.569 132.446 20.7391 129.418 18.3965 124.006C14.0428 113.94 11.7857 103.04 11.7857 92.0002C11.7857 68.4667 22.0763 47.1475 38.3679 32.3427C52.7233 19.2816 71.7534 11.2909 92.495 11.2909C106.155 11.2909 119.066 14.7568 130.395 20.8755L145.103 16.5218Z" fill="#292A94"/>
<path d="M166.262 19.014C146.707 17.7518 121.965 26.6838 107.342 40.9537C101.213 46.9333 96.3028 53.3088 92.6765 59.7912C88.3549 57.4699 83.3915 56.2077 78.1392 56.336C64.586 56.657 53.4183 66.1345 50.3697 78.7143C52.7658 78.0083 55.301 77.6018 57.9111 77.5376C66.5115 77.3344 74.3204 80.843 79.8079 86.6194C81.4767 84.94 83.3487 83.4745 85.3811 82.2443C84.8035 88.8016 85.7127 95.1449 88.1623 100.932C92.9653 102.012 98.0785 102.258 103.341 101.627C102.229 103.328 100.935 104.911 99.5012 106.334C105.406 111.683 109.129 119.406 109.139 127.996C109.139 130.616 108.808 133.152 108.166 135.569C120.66 132.21 129.849 120.796 129.827 107.243C129.827 102.355 128.619 97.755 126.49 93.7008C130.811 91.2405 135.101 88.2453 139.273 84.6939C157.041 69.6111 169.16 40.0016 166.262 19.0033V19.014ZM143.562 49.6718C139.123 49.6718 135.518 46.0669 135.518 41.6276C135.518 37.1883 139.123 33.5834 143.562 33.5834C148.002 33.5834 151.607 37.1883 151.607 41.6276C151.607 46.0669 148.002 49.6718 143.562 49.6718Z" fill="#292A94"/>
<path d="M36.9449 105.35L41.5125 112.581L49.8776 110.773L42.6464 115.341L44.4542 123.706L39.8865 116.475L31.5215 118.283L38.7527 113.715L36.9449 105.35Z" fill="#292A94"/>
<path d="M77.7006 144.02L79.2624 150.705L86.0871 151.529L79.3908 153.102L78.5671 159.916L77.0053 153.23L70.1913 152.406L76.877 150.844L77.7006 144.02Z" fill="#292A94"/>
<path d="M70.5229 104.623L78.1071 109.821L85.5844 104.473L80.3856 112.057L85.7341 119.534L78.1499 114.346L70.6727 119.684L75.8607 112.1L70.5229 104.623Z" fill="#292A94"/>
</g>
<defs>
<clipPath id="clip0_1635_4">
<rect width="184" height="184" fill="white" transform="translate(0.5)"/>
</clipPath>
</defs>
</svg>
